HIERARCHY
ROOT Hips
{
	OFFSET 0.000000 0.000000 0.000000 
	CHANNELS 6 Xposition Yposition Zposition Zrotation Yrotation Xrotation
	JOINT LeftUpLeg
	{
		OFFSET 1.363060 -1.794630 0.839290 
		CHANNELS 3 Zrotation Yrotation Xrotation
		JOINT LeftLeg
		{
			OFFSET 2.448110 -6.726130 0.000000 
			CHANNELS 3 Zrotation Yrotation Xrotation
			JOINT LeftFoot
			{
				OFFSET 2.562200 -7.039590 0.000000 
				CHANNELS 3 Zrotation Yrotation Xrotation
				JOINT LeftToeBase
				{
					OFFSET 0.157640 -0.433110 2.322550 
					CHANNELS 3 Zrotation Yrotation Xrotation
					End Site
					{
						OFFSET 0.000000 0.000000 0.000000 
					}
				}
			}
		}
	}
	JOINT RightUpLeg
	{
		OFFSET -1.305520 -1.794630 0.839290 
		CHANNELS 3 Zrotation Yrotation Xrotation
		JOINT RightLeg
		{
			OFFSET -2.542530 -6.985550 0.000000 
			CHANNELS 3 Zrotation Yrotation Xrotation
			JOINT RightFoot
			{
				OFFSET -2.568260 -7.056230 0.000000 
				CHANNELS 3 Zrotation Yrotation Xrotation
				JOINT RightToeBase
				{
					OFFSET -0.164730 -0.452590 2.363150 
					CHANNELS 3 Zrotation Yrotation Xrotation
					End Site
					{
						OFFSET 0.000000 0.000000 0.000000 
					}
				}
			}
		}
	}
	JOINT Spine
	{
		OFFSET 0.028270 2.035590 -0.193380 
		CHANNELS 3 Zrotation Yrotation Xrotation
		JOINT Spine1
		{
			OFFSET 0.056720 2.048850 -0.042750 
			CHANNELS 3 Zrotation Yrotation Xrotation
			JOINT Neck1
			{
				OFFSET -0.054170 1.746240 0.172020 
				CHANNELS 3 Zrotation Yrotation Xrotation
				JOINT Head
				{
					OFFSET 0.104070 1.761360 -0.123970 
					CHANNELS 3 Zrotation Yrotation Xrotation
					End Site
					{
						OFFSET 0.000000 0.000000 0.000000 
					}
				}
			}
			JOINT LeftArm
			{
				OFFSET 3.362410 1.200890 -0.311210 
				CHANNELS 3 Zrotation Yrotation Xrotation
				JOINT LeftForeArm
				{
					OFFSET 4.983000 -0.000000 -0.000000 
					CHANNELS 3 Zrotation Yrotation Xrotation
					JOINT LeftHand
					{
						OFFSET 3.483560 -0.000000 -0.000000 
						CHANNELS 3 Zrotation Yrotation Xrotation
						JOINT LeftHandIndex1
						{
							OFFSET 0.715260 -0.000000 -0.000000 
							CHANNELS 3 Zrotation Yrotation Xrotation
							End Site
							{
								OFFSET 0.000000 0.000000 0.000000 
							}
						}
					}
				}
			}
			JOINT RightArm
			{
				OFFSET -3.136600 1.374050 -0.404650 
				CHANNELS 3 Zrotation Yrotation Xrotation
				JOINT RightForeArm
				{
					OFFSET -5.241900 -0.000000 -0.000000 
					CHANNELS 3 Zrotation Yrotation Xrotation
					JOINT RightHand
					{
						OFFSET -3.444170 -0.000000 -0.000000 
						CHANNELS 3 Zrotation Yrotation Xrotation
						JOINT RightHandIndex1
						{
							OFFSET -0.622530 -0.000000 -0.000000 
							CHANNELS 3 Zrotation Yrotation Xrotation
							End Site
							{
								OFFSET 0.000000 0.000000 0.000000 
							}
						}
					}
				}
			}
		}
	}
}
MOTION
Frames: 7
Frame Time: 0.041667
-0.573356 18.380583 8.406351 -7.882670 -1.940136 14.829166 -27.140071 -50.295078 26.974619 -3.988413 -2.545266 -3.651406 -13.492726 47.781333 -42.738750 1.132700 6.759300 19.004300 21.359938 27.520028 1.110382 3.601067 -0.207938 1.410077 7.844543 -25.252947 -3.030920 -0.006900 0.535900 -1.472500 16.762124 7.352651 -29.987877 -9.752727 -0.383930 -8.510503 20.253406 -20.173852 27.741541 3.506800 -8.060300 8.547000 -84.822440 9.607435 9.236529 10.901705 -12.011722 -1.776676 0.199762 1.706356 29.399124 -7.125000 0.000000 0.000000 80.783536 -10.837863 -5.519867 -12.651402 16.753742 -2.369307 1.041629 1.262459 45.885663 7.125000 0.000000 0.000000 
-0.574721 18.379533 8.405616 -8.081620 -1.829166 14.819067 -27.150791 -50.417707 27.148054 -3.999425 -2.558901 -3.637750 -13.366105 47.703826 -42.984552 1.146700 6.799700 19.123400 21.465370 27.567460 1.117196 3.600763 -0.219906 1.402253 7.854536 -25.311238 -3.057332 -0.006100 0.506200 -1.391100 18.070117 7.645006 -30.025207 -10.077713 -0.496355 -8.487774 20.265231 -19.917485 27.335172 3.640200 -7.993300 8.446400 -85.245227 9.726421 8.758919 10.902075 -12.003081 -1.781398 0.202733 1.732534 29.486776 -7.125000 0.000000 0.000000 80.601777 -11.017959 -5.130521 -12.620757 16.736305 -2.366608 1.045753 1.257755 45.658154 7.125000 0.000000 0.000000 
-0.575877 18.378797 8.405511 -8.216039 -1.733057 14.803316 -27.165381 -50.437050 27.224388 -4.004802 -2.571096 -3.621770 -13.360224 47.699943 -43.015983 1.151900 6.814500 19.166900 21.507554 27.570503 1.104505 3.600095 -0.233729 1.401323 7.865541 -25.366735 -3.056963 -0.007500 0.558800 -1.535600 19.257227 7.887650 -30.053587 -10.327493 -0.610959 -8.488209 20.358522 -19.676818 26.985604 3.796300 -7.924300 8.364900 -85.687885 9.845615 8.209178 10.922392 -12.014229 -1.785867 0.204815 1.736085 29.571252 -7.125000 0.000000 0.000000 80.419529 -11.239456 -4.739438 -12.606539 16.743835 -2.369991 1.046399 1.259993 45.494474 7.125000 0.000000 0.000000 
-0.575562 18.379113 8.404986 -8.314049 -1.646278 14.783401 -27.211856 -50.446311 27.290089 -4.007812 -2.584958 -3.609471 -13.408802 47.743902 -42.987157 1.148500 6.804800 19.138300 21.500828 27.555865 1.083803 3.600583 -0.240186 1.387761 7.864878 -25.378823 -3.079041 -0.007400 0.554300 -1.523100 20.385502 8.085336 -30.013786 -10.541765 -0.737248 -8.545596 20.450730 -19.461781 26.791184 3.953200 -7.859400 8.337600 -86.146270 9.915842 7.473305 10.946044 -12.027426 -1.785459 0.217954 1.717705 29.769044 -7.125000 0.000000 0.000000 80.213165 -11.474243 -4.373981 -12.593734 16.756538 -2.373309 1.043985 1.265067 45.481983 7.125000 0.000000 0.000000 
-0.578397 18.383524 8.405931 -8.300764 -1.611876 14.867568 -27.448643 -50.615926 27.376587 -4.020679 -2.595057 -3.555555 -13.234757 47.652197 -43.340270 1.191000 6.925300 19.494200 21.222712 27.720439 0.980495 3.602306 -0.247890 1.323716 7.914726 -25.525343 -3.110099 -0.002500 0.324400 -0.891200 22.314029 8.384682 -30.086553 -10.677280 -0.975046 -8.577720 20.600000 -18.985299 26.262287 4.264900 -7.720500 8.237300 -87.140779 10.167133 6.260796 11.020997 -12.072244 -1.796957 0.235551 1.703897 29.753183 -7.125000 0.000000 0.000000 79.630483 -11.866363 -3.518951 -12.407577 16.581846 -2.327685 1.049756 1.248020 45.456371 7.125000 0.000000 0.000000 
-0.585750 18.389510 8.425992 -7.953173 -1.660574 15.123238 -27.911393 -50.966901 27.506468 -4.020809 -2.563975 -3.532454 -13.087550 47.665361 -43.780294 1.219700 7.005200 19.730800 20.810483 27.795762 0.922417 3.611479 -0.167356 1.098728 8.004922 -25.753254 -3.084136 0.000000 -0.027800 0.076300 21.783473 8.254476 -30.452075 -10.350958 -0.936271 -8.087090 20.598476 -18.988727 26.135991 4.246500 -7.724000 8.200700 -87.057814 10.020265 5.900524 10.991080 -12.005893 -1.782270 0.257669 1.699736 29.591567 -7.125000 0.000000 0.000000 79.497336 -11.819006 -3.531711 -12.154639 16.242311 -2.246884 1.069098 1.219094 45.455702 7.125000 0.000000 0.000000 
-0.590371 18.393081 8.433134 -7.756504 -1.726137 15.214902 -28.163360 -51.104568 27.574623 -4.019669 -2.551160 -3.526310 -13.080139 47.738808 -43.947977 1.221200 7.009400 19.743300 20.586651 27.873991 0.909245 3.614767 -0.137458 1.014027 8.053909 -25.871626 -3.080053 -0.000900 -0.198300 0.544700 21.472698 8.186782 -30.605025 -10.169965 -0.906267 -7.888230 20.633649 -18.969281 26.049128 4.249300 -7.715400 8.175400 -86.988058 9.870457 5.567146 11.065739 -12.081435 -1.775388 0.269062 1.585161 29.831664 -7.125000 0.000000 0.000000 79.439337 -11.814045 -3.595772 -12.010674 16.051698 -2.201930 1.078307 1.209424 45.480913 7.125000 0.000000 0.000000 
